<?xml version="1.0" encoding="UTF-8" standalone="no"?>
<!DOCTYPE svg PUBLIC "-//W3C//DTD SVG 1.1//EN"
 "http://www.w3.org/Graphics/SVG/1.1/DTD/svg11.dtd">
<!-- Generated by graphviz version 2.40.1 (20161225.0304)
 -->
<!-- Title: %3 Pages: 1 -->
<svg width="697pt" height="332pt"
 viewBox="0.00 0.00 696.59 332.00" xmlns="http://www.w3.org/2000/svg" xmlns:xlink="http://www.w3.org/1999/xlink">
<g id="graph0" class="graph" transform="scale(1 1) rotate(0) translate(4 328)">
<title>%3</title>
<polygon fill="#ffffff" stroke="transparent" points="-4,4 -4,-328 692.5943,-328 692.5943,4 -4,4"/>
<!-- [root] aws_instance.treafik -->
<g id="node1" class="node">
<title>[root] aws_instance.treafik</title>
<polygon fill="none" stroke="#000000" points="413.5038,-180 283.6893,-180 283.6893,-144 413.5038,-144 413.5038,-180"/>
<text text-anchor="middle" x="348.5965" y="-157.8" font-family="Times,serif" font-size="14.00" fill="#000000">aws_instance.treafik</text>
</g>
<!-- [root] provider.aws -->
<g id="node2" class="node">
<title>[root] provider.aws</title>
<polygon fill="none" stroke="#000000" points="348.5965,-108 269.9882,-90 348.5965,-72 427.2048,-90 348.5965,-108"/>
<text text-anchor="middle" x="348.5965" y="-85.8" font-family="Times,serif" font-size="14.00" fill="#000000">provider.aws</text>
</g>
<!-- [root] aws_instance.treafik&#45;&gt;[root] provider.aws -->
<g id="edge1" class="edge">
<title>[root] aws_instance.treafik&#45;&gt;[root] provider.aws</title>
<path fill="none" stroke="#000000" d="M348.5965,-143.8314C348.5965,-136.131 348.5965,-126.9743 348.5965,-118.4166"/>
<polygon fill="#000000" stroke="#000000" points="352.0966,-118.4132 348.5965,-108.4133 345.0966,-118.4133 352.0966,-118.4132"/>
</g>
<!-- [root] var.profile -->
<g id="node5" class="node">
<title>[root] var.profile</title>
<ellipse fill="none" stroke="#000000" cx="193.5965" cy="-18" rx="68.6219" ry="18"/>
<text text-anchor="middle" x="193.5965" y="-13.8" font-family="Times,serif" font-size="14.00" fill="#000000">[root] var.profile</text>
</g>
<!-- [root] provider.aws&#45;&gt;[root] var.profile -->
<g id="edge4" class="edge">
<title>[root] provider.aws&#45;&gt;[root] var.profile</title>
<path fill="none" stroke="#000000" d="M322.3029,-77.7862C298.8925,-66.9117 264.1989,-50.796 236.729,-38.0357"/>
<polygon fill="#000000" stroke="#000000" points="237.888,-34.715 227.3442,-33.6763 234.939,-41.0635 237.888,-34.715"/>
</g>
<!-- [root] var.region -->
<g id="node6" class="node">
<title>[root] var.region</title>
<ellipse fill="none" stroke="#000000" cx="348.5965" cy="-18" rx="68.1287" ry="18"/>
<text text-anchor="middle" x="348.5965" y="-13.8" font-family="Times,serif" font-size="14.00" fill="#000000">[root] var.region</text>
</g>
<!-- [root] provider.aws&#45;&gt;[root] var.region -->
<g id="edge5" class="edge">
<title>[root] provider.aws&#45;&gt;[root] var.region</title>
<path fill="none" stroke="#000000" d="M348.5965,-71.8314C348.5965,-64.131 348.5965,-54.9743 348.5965,-46.4166"/>
<polygon fill="#000000" stroke="#000000" points="352.0966,-46.4132 348.5965,-36.4133 345.0966,-46.4133 352.0966,-46.4132"/>
</g>
<!-- [root] var.shared_credentials_file -->
<g id="node7" class="node">
<title>[root] var.shared_credentials_file</title>
<ellipse fill="none" stroke="#000000" cx="561.5965" cy="-18" rx="126.9955" ry="18"/>
<text text-anchor="middle" x="561.5965" y="-13.8" font-family="Times,serif" font-size="14.00" fill="#000000">[root] var.shared_credentials_file</text>
</g>
<!-- [root] provider.aws&#45;&gt;[root] var.shared_credentials_file -->
<g id="edge6" class="edge">
<title>[root] provider.aws&#45;&gt;[root] var.shared_credentials_file</title>
<path fill="none" stroke="#000000" d="M380.4848,-79.2209C412.7563,-68.3122 463.3961,-51.1945 502.9331,-37.8299"/>
<polygon fill="#000000" stroke="#000000" points="504.1173,-41.1242 512.4699,-34.6062 501.8756,-34.4928 504.1173,-41.1242"/>
</g>
<!-- [root] meta.count&#45;boundary (count boundary fixup) -->
<g id="node3" class="node">
<title>[root] meta.count&#45;boundary (count boundary fixup)</title>
<ellipse fill="none" stroke="#000000" cx="191.5965" cy="-234" rx="191.6931" ry="18"/>
<text text-anchor="middle" x="191.5965" y="-229.8" font-family="Times,serif" font-size="14.00" fill="#000000">[root] meta.count&#45;boundary (count boundary fixup)</text>
</g>
<!-- [root] meta.count&#45;boundary (count boundary fixup)&#45;&gt;[root] aws_instance.treafik -->
<g id="edge2" class="edge">
<title>[root] meta.count&#45;boundary (count boundary fixup)&#45;&gt;[root] aws_instance.treafik</title>
<path fill="none" stroke="#000000" d="M230.4055,-216.2022C251.3815,-206.5827 277.4884,-194.6101 299.8266,-184.3658"/>
<polygon fill="#000000" stroke="#000000" points="301.5127,-187.4431 309.1435,-180.0931 298.5947,-181.0803 301.5127,-187.4431"/>
</g>
<!-- [root] provider.aws (close) -->
<g id="node4" class="node">
<title>[root] provider.aws (close)</title>
<ellipse fill="none" stroke="#000000" cx="505.5965" cy="-234" rx="104.3276" ry="18"/>
<text text-anchor="middle" x="505.5965" y="-229.8" font-family="Times,serif" font-size="14.00" fill="#000000">[root] provider.aws (close)</text>
</g>
<!-- [root] provider.aws (close)&#45;&gt;[root] aws_instance.treafik -->
<g id="edge3" class="edge">
<title>[root] provider.aws (close)&#45;&gt;[root] aws_instance.treafik</title>
<path fill="none" stroke="#000000" d="M468.787,-217.1192C447.4385,-207.3288 420.2947,-194.8807 397.2064,-184.2924"/>
<polygon fill="#000000" stroke="#000000" points="398.4686,-181.0208 387.9199,-180.0336 395.5506,-187.3836 398.4686,-181.0208"/>
</g>
<!-- [root] root -->
<g id="node8" class="node">
<title>[root] root</title>
<ellipse fill="none" stroke="#000000" cx="348.5965" cy="-306" rx="46.8976" ry="18"/>
<text text-anchor="middle" x="348.5965" y="-301.8" font-family="Times,serif" font-size="14.00" fill="#000000">[root] root</text>
</g>
<!-- [root] root&#45;&gt;[root] meta.count&#45;boundary (count boundary fixup) -->
<g id="edge7" class="edge">
<title>[root] root&#45;&gt;[root] meta.count&#45;boundary (count boundary fixup)</title>
<path fill="none" stroke="#000000" d="M318.3253,-292.1177C295.9458,-281.8544 265.0277,-267.6754 239.3332,-255.892"/>
<polygon fill="#000000" stroke="#000000" points="240.6774,-252.658 230.1287,-251.6708 237.7594,-259.0208 240.6774,-252.658"/>
</g>
<!-- [root] root&#45;&gt;[root] provider.aws (close) -->
<g id="edge8" class="edge">
<title>[root] root&#45;&gt;[root] provider.aws (close)</title>
<path fill="none" stroke="#000000" d="M378.8677,-292.1177C401.7234,-281.6361 433.4849,-267.0703 459.4926,-255.1432"/>
<polygon fill="#000000" stroke="#000000" points="461.1563,-258.2308 468.787,-250.8808 458.2382,-251.868 461.1563,-258.2308"/>
</g>
</g>
</svg>
